<?xml version="1.0" encoding="utf-8"?>
<svg xmlns="http://www.w3.org/2000/svg" viewBox="0 0 500 500">
  <defs>
    <linearGradient gradientUnits="userSpaceOnUse" x1="381.549" y1="95.537" x2="381.549" y2="368.822" id="gradient-0" gradientTransform="matrix(0.699185, -0.714941, 0.775962, 0.75886, -65.143919, 303.906995)" spreadMethod="pad">
      <stop offset="0" style="stop-color: rgb(70, 243, 255);"/>
      <stop offset="0.092" style="stop-color: rgb(82, 138, 169);"/>
      <stop offset="0.454" style="stop-color: rgb(87, 96, 134);"/>
      <stop offset="0.568" style="stop-color: rgb(87, 96, 134);"/>
      <stop offset="0.792" style="stop-color: rgb(123, 100, 154);"/>
      <stop offset="0.932" style="stop-color: rgb(153, 103, 171);"/>
      <stop offset="1" style="stop-color: rgb(255, 115, 227);"/>
    </linearGradient>
  </defs>
  <g transform="matrix(1.665364, 0, 0, 1.665364, -166.142426, -165.514252)" style="">
    <g transform="matrix(1.011784, 0, 0, 1.011784, -134.297302, 15.339831)" style="">
      <path d="M 326.246 97.576 L 332.943 97.576 L 339.64 97.576 L 346.337 97.576 L 353.034 97.576 L 359.731 97.576 L 366.428 97.576 L 373.125 97.576 L 379.822 97.576 L 386.519 97.576 L 393.216 97.576 L 399.913 97.576 L 406.61 97.576 L 413.307 97.576 L 420.004 97.576 L 426.701 97.576 L 433.397 97.576 C 435.399 97.576 437.377 97.678 439.327 97.876 C 441.277 98.073 443.198 98.368 445.086 98.754 C 446.974 99.141 448.829 99.619 450.645 100.184 C 452.461 100.749 454.239 101.401 455.973 102.134 C 457.708 102.868 459.4 103.684 461.043 104.577 C 462.687 105.47 464.283 106.44 465.825 107.482 C 467.368 108.524 468.858 109.638 470.29 110.82 C 471.723 112.003 473.097 113.252 474.409 114.564 C 475.721 115.876 476.971 117.25 478.153 118.683 C 479.335 120.115 480.449 121.605 481.491 123.148 C 482.534 124.691 483.504 126.286 484.397 127.93 C 485.29 129.574 486.106 131.265 486.839 133 C 487.573 134.735 488.225 136.513 488.79 138.329 C 489.355 140.145 489.833 142 490.219 143.887 C 490.605 145.775 490.9 147.696 491.098 149.646 C 491.296 151.596 491.397 153.574 491.397 155.576 L 491.397 162.325 L 491.397 169.073 L 491.397 175.822 L 491.397 182.57 L 491.397 189.318 L 491.397 196.066 L 491.397 202.815 L 491.397 209.563 L 491.397 216.312 L 491.397 223.06 L 491.397 229.809 L 491.397 236.557 L 491.397 243.306 L 491.397 250.054 L 491.397 256.803 L 491.397 263.551 C 491.397 265.553 491.296 267.531 491.098 269.481 C 490.9 271.431 490.605 273.352 490.219 275.24 C 489.833 277.128 489.355 278.982 488.79 280.798 C 488.225 282.614 487.573 284.392 486.839 286.127 C 486.106 287.862 485.29 289.553 484.397 291.197 C 483.504 292.84 482.534 294.436 481.491 295.979 C 480.449 297.522 479.335 299.012 478.153 300.444 C 476.971 301.877 475.721 303.251 474.409 304.563 C 473.097 305.875 471.723 307.125 470.29 308.307 C 468.858 309.489 444.74 327.85 444.74 327.85 L 432.225 335.829 L 367.876 370.861 L 385.49 321.55 L 379.821 321.551 L 373.125 321.551 L 366.428 321.551 L 359.731 321.551 L 353.034 321.551 L 346.337 321.551 L 339.64 321.551 L 332.943 321.551 L 326.246 321.551 C 324.244 321.551 322.266 321.45 320.316 321.252 C 318.366 321.054 316.445 320.759 314.557 320.373 C 312.669 319.987 310.815 319.508 308.999 318.943 C 307.183 318.378 305.405 317.727 303.67 316.993 C 301.935 316.259 300.244 315.443 298.6 314.55 C 296.957 313.658 295.361 312.688 293.818 311.645 C 292.275 310.603 290.785 309.489 289.353 308.307 C 287.92 307.125 286.546 305.875 285.234 304.563 C 283.922 303.251 282.672 301.877 281.49 300.444 C 280.308 299.012 279.194 297.522 278.152 295.979 C 277.109 294.437 276.139 292.841 275.247 291.197 C 274.354 289.553 273.538 287.862 272.804 286.127 C 272.07 284.392 271.419 282.614 270.854 280.798 C 270.289 278.982 269.81 277.128 269.424 275.24 C 269.038 273.352 268.743 271.431 268.545 269.481 C 268.347 267.531 268.246 265.553 268.246 263.551 L 268.246 256.803 L 268.246 250.054 L 268.246 243.306 L 268.246 236.557 L 268.246 229.809 L 268.246 223.06 L 268.246 216.312 L 268.246 209.563 L 268.246 202.815 L 268.246 196.066 L 268.246 189.318 L 268.246 182.57 L 268.246 175.822 L 268.246 169.073 L 268.246 162.325 L 268.246 155.576 C 268.246 153.574 268.347 151.596 268.545 149.646 C 268.743 147.696 269.038 145.775 269.424 143.887 C 269.81 141.999 270.289 140.145 270.854 138.328 C 271.419 136.512 272.07 134.735 272.804 133 C 273.538 131.266 274.354 129.574 275.247 127.93 C 276.139 126.287 277.109 124.691 278.152 123.148 C 279.194 121.605 280.308 120.115 281.49 118.683 C 282.672 117.251 283.922 115.876 285.234 114.564 C 286.546 113.252 287.92 112.003 289.353 110.821 C 290.785 109.639 292.275 108.524 293.818 107.482 C 295.361 106.44 296.957 105.47 298.6 104.577 C 300.244 103.684 301.935 102.868 303.67 102.134 C 305.405 101.401 307.183 100.749 308.999 100.184 C 310.815 99.619 312.67 99.141 314.557 98.754 C 316.445 98.368 318.366 98.074 320.316 97.876 C 322.266 97.678 324.244 97.576 326.246 97.576 Z" style="stroke-width: 19px; fill: url(&quot;#gradient-0&quot;);"/>
      <path d="M 326.246 88.076 L 433.397 88.076 C 435.644 88.082 438.1 88.209 440.284 88.424 C 442.477 88.652 444.875 89.02 446.994 89.447 C 449.113 89.888 451.427 90.478 453.467 91.113 C 455.509 91.748 457.726 92.567 459.674 93.385 C 461.622 94.215 463.731 95.232 465.579 96.23 C 467.422 97.237 469.409 98.445 471.143 99.61 C 472.871 100.784 474.727 102.171 476.338 103.494 C 477.942 104.825 479.655 106.375 481.127 107.846 C 482.597 109.317 484.148 111.03 485.481 112.637 C 486.803 114.248 488.189 116.101 489.363 117.83 C 490.529 119.564 491.741 121.548 492.745 123.396 C 493.747 125.24 494.759 127.351 495.589 129.301 C 496.408 131.251 497.226 133.465 497.861 135.507 C 498.496 137.547 499.087 139.864 499.526 141.984 C 499.954 144.103 500.327 146.495 500.549 148.686 C 500.771 150.873 500.891 153.332 500.897 155.576 L 500.897 263.551 C 500.891 265.795 500.771 268.254 500.549 270.441 C 500.327 272.632 499.959 275.026 499.526 277.143 C 499.092 279.267 498.496 281.581 497.861 283.62 C 497.226 285.662 496.408 287.876 495.589 289.826 C 494.759 291.776 493.741 293.887 492.744 295.734 C 491.737 297.575 490.529 299.562 489.363 301.297 C 488.189 303.026 486.803 304.879 485.481 306.49 C 484.148 308.097 482.597 309.81 481.127 311.281 C 479.656 312.751 477.985 314.354 476.336 315.635 C 473.21 318.064 404.947 360.97 404.947 360.97 C 398.169 364.906 378.988 373.42 378.127 373.828 C 365.415 379.849 359.119 370.624 360.695 363.835 C 361.837 358.914 364.567 351.372 366.311 346.785 L 372.008 331.052 L 385.492 331.05 L 379.821 331.051 L 326.246 331.051 C 324.002 331.045 321.543 330.925 319.356 330.703 C 317.165 330.481 314.771 330.113 312.654 329.68 C 310.528 329.246 308.214 328.648 306.177 328.014 C 304.137 327.38 301.919 326.567 299.969 325.742 C 298.018 324.917 295.913 323.895 294.066 322.898 C 292.223 321.891 290.235 320.683 288.5 319.517 C 286.771 318.343 284.918 316.957 283.307 315.635 C 281.7 314.302 279.987 312.751 278.517 311.281 C 277.046 309.81 275.495 308.097 274.162 306.49 C 272.84 304.879 271.455 303.027 270.281 301.299 C 269.113 299.562 267.906 297.575 266.898 295.729 C 265.901 293.883 264.88 291.779 264.055 289.828 C 263.23 287.878 262.418 285.66 261.783 283.62 C 261.149 281.583 260.551 279.269 260.117 277.143 C 259.684 275.026 259.316 272.632 259.094 270.441 C 258.872 268.254 258.752 265.795 258.746 263.551 L 258.746 155.576 C 258.752 153.332 258.872 150.873 259.094 148.686 C 259.316 146.495 259.684 144.101 260.117 141.984 C 260.551 139.858 261.155 137.545 261.783 135.506 C 262.423 133.467 263.236 131.249 264.056 129.297 C 264.885 127.351 265.901 125.244 266.899 123.396 C 267.906 121.553 269.114 119.565 270.28 117.83 C 271.454 116.101 272.836 114.244 274.164 112.636 C 275.49 111.029 277.045 109.318 278.517 107.846 C 279.988 106.375 281.702 104.825 283.307 103.493 C 284.916 102.172 286.768 100.78 288.501 99.609 C 290.233 98.44 292.224 97.236 294.066 96.229 C 295.912 95.232 298.024 94.214 299.973 93.383 C 301.921 92.566 304.135 91.748 306.177 91.113 C 308.217 90.478 310.536 89.887 312.654 89.447 C 314.775 89.019 317.167 88.647 319.356 88.425 C 321.541 88.203 323.999 88.082 326.246 88.076 Z M 321.276 107.327 C 319.565 107.501 318.118 107.716 316.463 108.061 C 314.808 108.394 313.413 108.76 311.821 109.255 C 310.231 109.75 308.891 110.235 307.369 110.884 C 305.849 111.521 304.577 112.135 303.136 112.924 C 301.692 113.703 300.489 114.44 299.135 115.355 C 297.782 116.268 296.655 117.105 295.4 118.148 C 294.14 119.18 293.104 120.129 291.952 121.281 C 290.799 122.434 289.854 123.473 288.817 124.73 C 287.78 125.986 286.935 127.108 286.025 128.465 C 285.106 129.815 284.373 131.02 283.596 132.463 C 282.807 133.903 282.191 135.18 281.553 136.702 C 280.905 138.22 280.415 139.556 279.925 141.15 C 279.424 142.744 279.069 144.14 278.731 145.79 C 278.392 147.449 278.17 148.897 277.996 150.606 C 277.822 152.319 277.74 153.816 277.746 155.576 L 277.746 263.551 C 277.74 265.311 277.822 266.808 277.996 268.521 C 278.17 270.23 278.392 271.678 278.731 273.337 C 279.069 274.987 279.429 276.381 279.925 277.976 C 280.421 279.568 280.91 280.906 281.553 282.426 C 282.196 283.945 282.806 285.221 283.595 286.662 C 284.371 288.105 285.103 289.309 286.021 290.656 C 286.931 292.013 287.776 293.144 288.817 294.397 C 289.848 295.656 290.798 296.692 291.952 297.845 C 293.105 298.999 294.139 299.947 295.398 300.978 C 296.651 302.019 297.778 302.862 299.135 303.772 C 300.485 304.691 301.69 305.424 303.133 306.201 C 304.574 306.99 305.852 307.601 307.371 308.244 C 308.891 308.887 310.229 309.376 311.821 309.872 C 313.416 310.368 314.81 310.728 316.46 311.066 C 318.119 311.405 319.567 311.627 321.276 311.801 C 322.989 311.975 324.486 312.057 326.246 312.051 L 379.82 312.051 L 398.325 312.037 L 385.196 350.616 C 385.196 350.616 459.718 304.001 464.243 300.98 C 465.596 300.077 466.538 298.999 467.692 297.845 C 468.845 296.692 469.793 295.658 470.824 294.399 C 471.865 293.146 472.708 292.019 473.618 290.662 C 474.537 289.312 475.271 288.106 476.05 286.661 C 476.838 285.221 477.453 283.949 478.088 282.43 C 478.737 280.91 479.224 279.566 479.719 277.976 C 480.214 276.383 480.574 274.989 480.912 273.337 C 481.251 271.678 481.473 270.23 481.647 268.521 C 481.821 266.808 481.903 265.311 481.897 263.551 L 481.897 155.576 C 481.903 153.816 481.821 152.319 481.647 150.606 C 481.473 148.897 481.256 147.448 480.912 145.79 C 480.58 144.137 480.214 142.743 479.719 141.151 C 479.224 139.561 478.739 138.221 478.09 136.701 C 477.454 135.182 476.833 133.908 476.049 132.464 C 475.267 131.024 474.54 129.819 473.62 128.468 C 472.711 127.111 471.867 125.983 470.826 124.73 C 469.795 123.471 468.845 122.435 467.692 121.281 C 466.539 120.129 465.504 119.181 464.242 118.146 C 462.99 117.105 461.865 116.265 460.508 115.355 C 459.159 114.436 457.953 113.703 456.509 112.925 C 455.07 112.137 453.795 111.522 452.273 110.884 C 450.753 110.235 449.413 109.75 447.823 109.255 C 446.231 108.76 444.837 108.394 443.181 108.061 C 441.524 107.716 440.079 107.494 438.372 107.328 C 436.657 107.148 435.154 107.07 433.397 107.076 L 326.246 107.076 C 324.489 107.07 322.991 107.153 321.276 107.327 Z" style="fill: rgb(29, 36, 63);"/>
    </g>
    <g transform="matrix(1, 0, 0, 1, 108.046494, -49.152153)">
      <g>
        <rect style="fill: rgb(216, 216, 216); stroke-width: 33px; stroke: rgb(29, 36, 63);" width="144.009" height="34.179" rx="17.1" ry="17.1" x="69.949" y="218.658"/>
        <rect style="fill: rgb(216, 216, 216); stroke-width: 33px; stroke: rgb(29, 36, 63); transform-box: fill-box; transform-origin: 50% 50%;" x="72.001" y="280.846" width="116.336" height="34.179" rx="17.1" ry="17.1" transform="matrix(0, 1, -1, 0, 10.294258, -18.457283)"/>
      </g>
      <g>
        <rect style="stroke-width: 0px; stroke: rgb(255, 255, 255); fill: rgb(255, 255, 255);" width="144.009" height="34.179" rx="17.1" ry="17.1" x="69.949" y="218.658"/>
        <rect style="stroke: rgb(29, 36, 63); fill: rgb(255, 255, 255); stroke-width: 0px; transform-origin: 130.169px 297.936px;" x="72.001" y="280.846" width="116.336" height="34.179" rx="17.1" ry="17.1" transform="matrix(0, 1, -1, 0, 10.293762, -18.457718)"/>
      </g>
    </g>
  </g>
</svg>